<svg xmlns="http://www.w3.org/2000/svg" width="44" height="14" viewBox="0 0 44 14">
  <g id="Group_3" data-name="Group 3" transform="translate(-548 -695)">
    <path id="Path_2" data-name="Path 2" d="M0,0H44V14H0Z" transform="translate(548 695)" fill="rgba(232,0,0,0)"/>
    <path id="codepen-brands" d="M13.734,4.368,7.336.1a.608.608,0,0,0-.672,0L.266,4.368a.612.612,0,0,0-.266.5V9.133a.612.612,0,0,0,.266.5l6.4,4.266a.608.608,0,0,0,.672,0l6.4-4.266a.612.612,0,0,0,.266-.5V4.868a.612.612,0,0,0-.266-.5ZM7.6,1.727l4.711,3.141-2.1,1.406L7.6,4.532Zm-1.2,0v2.8L3.789,6.274l-2.1-1.406ZM1.2,5.993,2.711,7,1.2,8.008V5.993Zm5.2,6.281L1.687,9.133l2.1-1.406L6.4,9.469ZM7,8.422,4.875,7,7,5.579,9.125,7Zm.6,3.852v-2.8l2.609-1.742,2.1,1.406Zm5.2-4.266L11.289,7,12.8,5.993V8.008Z" transform="translate(548 694.999)" fill="#fff"/>
  </g>
</svg>
