<svg xmlns="http://www.w3.org/2000/svg" width="14.4" height="14.4" viewBox="0 0 14.4 14.4">
  <path id="codepen-brands" d="M14.127,4.492,7.545.105a.625.625,0,0,0-.691,0L.273,4.492A.629.629,0,0,0,0,5.007V9.394a.629.629,0,0,0,.273.514L6.854,14.3a.625.625,0,0,0,.691,0l6.581-4.388a.629.629,0,0,0,.273-.514V5.007a.629.629,0,0,0-.273-.514ZM7.819,1.776l4.846,3.23L10.5,6.453,7.819,4.661Zm-1.237,0V4.661L3.9,6.453,1.736,5.007ZM1.237,6.164,2.788,7.2,1.237,8.237V6.164Zm5.344,6.461L1.736,9.394,3.9,7.948,6.581,9.74ZM7.2,8.663,5.014,7.2,7.2,5.738,9.386,7.2Zm.619,3.962V9.74L10.5,7.948l2.162,1.446Zm5.344-4.388L11.612,7.2l1.551-1.037V8.237Z" transform="translate(0 -0.001)" fill="#fff"/>
</svg>
