<svg xmlns="http://www.w3.org/2000/svg" width="14.4" height="14.4" viewBox="0 0 14.4 14.4">
  <path id="dribbble-brands" d="M15.2,8a7.2,7.2,0,1,0,7.2,7.2A7.208,7.208,0,0,0,15.2,8Zm4.76,3.32a6.121,6.121,0,0,1,1.389,3.831,14.372,14.372,0,0,0-4.282-.2c-.167-.408-.325-.766-.54-1.208A8.192,8.192,0,0,0,19.96,11.32Zm-.684-.711a6.944,6.944,0,0,1-3.223,2.222,32.826,32.826,0,0,0-2.295-3.6A6.134,6.134,0,0,1,19.277,10.609Zm-6.691-.965a39.239,39.239,0,0,1,2.28,3.557,22.939,22.939,0,0,1-5.686.749A6.172,6.172,0,0,1,12.585,9.644ZM9.05,15.209c0-.063,0-.125,0-.188a22.686,22.686,0,0,0,6.32-.875c.176.345.344.694.5,1.044a9.526,9.526,0,0,0-5.241,4.131A6.125,6.125,0,0,1,9.05,15.209Zm2.375,4.852a8.65,8.65,0,0,1,4.865-3.854A25.563,25.563,0,0,1,17.6,20.871,6.137,6.137,0,0,1,11.425,20.061Zm7.211.246a26.544,26.544,0,0,0-1.195-4.385,9.027,9.027,0,0,1,3.831.263A6.161,6.161,0,0,1,18.636,20.308Z" transform="translate(-8 -8)" fill="#fff"/>
</svg>
