<svg xmlns="http://www.w3.org/2000/svg" width="44" height="14" viewBox="0 0 44 14">
  <g id="Group_3" data-name="Group 3" transform="translate(-548 -695)">
    <path id="Path_2" data-name="Path 2" d="M0,0H44V14H0Z" transform="translate(548 695)" fill="rgba(232,0,0,0)"/>
    <path id="dribbble-brands" d="M15,8a7,7,0,1,0,7,7A7.008,7.008,0,0,0,15,8Zm4.628,3.228a5.951,5.951,0,0,1,1.35,3.725,13.973,13.973,0,0,0-4.163-.192c-.162-.4-.316-.745-.525-1.175a7.965,7.965,0,0,0,3.339-2.358Zm-.665-.691A6.751,6.751,0,0,1,15.83,12.7,31.914,31.914,0,0,0,13.6,9.2,5.964,5.964,0,0,1,18.963,10.537ZM12.458,9.6a38.15,38.15,0,0,1,2.217,3.458,22.3,22.3,0,0,1-5.528.728A6,6,0,0,1,12.458,9.6ZM9.021,15.009c0-.061,0-.122,0-.183a22.056,22.056,0,0,0,6.145-.851c.171.335.335.675.485,1.015a9.261,9.261,0,0,0-5.1,4.017A5.955,5.955,0,0,1,9.021,15.009Zm2.309,4.717a8.41,8.41,0,0,1,4.73-3.747,24.853,24.853,0,0,1,1.275,4.534A5.967,5.967,0,0,1,11.33,19.726Zm7.011.24A25.806,25.806,0,0,0,17.179,15.7a8.776,8.776,0,0,1,3.724.256A5.99,5.99,0,0,1,18.341,19.966Z" transform="translate(540 687)" fill="#fff"/>
  </g>
</svg>
