<svg xmlns="http://www.w3.org/2000/svg" width="14.4" height="14.397" viewBox="0 0 14.4 14.397">
  <path id="instagram-brands" d="M7.127,35.332a3.691,3.691,0,1,0,3.691,3.691A3.685,3.685,0,0,0,7.127,35.332Zm0,6.091a2.4,2.4,0,1,1,2.4-2.4,2.4,2.4,0,0,1-2.4,2.4Zm4.7-6.242a.861.861,0,1,1-.861-.861A.859.859,0,0,1,11.83,35.181Zm2.445.874a4.261,4.261,0,0,0-1.163-3.017,4.289,4.289,0,0,0-3.017-1.163c-1.189-.067-4.751-.067-5.94,0a4.282,4.282,0,0,0-3.017,1.16A4.275,4.275,0,0,0-.024,36.052c-.067,1.189-.067,4.751,0,5.94a4.261,4.261,0,0,0,1.163,3.017,4.294,4.294,0,0,0,3.017,1.163c1.189.067,4.751.067,5.94,0a4.261,4.261,0,0,0,3.017-1.163,4.289,4.289,0,0,0,1.163-3.017C14.342,40.8,14.342,37.244,14.274,36.055Zm-1.536,7.212a2.43,2.43,0,0,1-1.369,1.369,15.866,15.866,0,0,1-4.244.289,15.99,15.99,0,0,1-4.244-.289,2.43,2.43,0,0,1-1.369-1.369,15.866,15.866,0,0,1-.289-4.244,15.99,15.99,0,0,1,.289-4.244,2.43,2.43,0,0,1,1.369-1.369,15.866,15.866,0,0,1,4.244-.289,15.99,15.99,0,0,1,4.244.289,2.43,2.43,0,0,1,1.369,1.369,15.866,15.866,0,0,1,.289,4.244A15.857,15.857,0,0,1,12.739,43.267Z" transform="translate(0.075 -31.825)" fill="#fff"/>
</svg>
