<svg xmlns="http://www.w3.org/2000/svg" width="14.4" height="14.4" viewBox="0 0 14.4 14.4">
  <path id="medium-brands" d="M0,32V46.4H14.4V32Zm11.964,3.41-.771.739a.227.227,0,0,0-.087.215v5.442a.221.221,0,0,0,.087.215l.755.739v.164H8.155v-.158l.781-.759c.077-.077.077-.1.077-.215v-4.4L6.84,42.909H6.547l-2.53-5.516v3.7a.508.508,0,0,0,.141.424l1.016,1.231v.164H2.289v-.164L3.3,41.514a.492.492,0,0,0,.132-.424V36.815a.367.367,0,0,0-.122-.315l-.9-1.09v-.164H5.217L7.383,40,9.289,35.25h2.674Z" transform="translate(0 -32)" fill="#fff"/>
</svg>
