<svg xmlns="http://www.w3.org/2000/svg" width="44" height="14" viewBox="0 0 44 14">
  <g id="Group_3" data-name="Group 3" transform="translate(-548 -695)">
    <path id="Path_2" data-name="Path 2" d="M0,0H44V14H0Z" transform="translate(548 695)" fill="rgba(232,0,0,0)"/>
    <path id="medium-brands" d="M0,32V46H14V32Zm11.631,3.316-.75.719a.22.22,0,0,0-.084.209v5.291a.215.215,0,0,0,.084.209l.734.719v.159H7.928v-.153l.759-.737c.075-.075.075-.1.075-.209V37.244L6.65,42.606H6.366L3.906,37.244v3.594a.494.494,0,0,0,.138.413l.987,1.2v.159H2.225v-.159l.987-1.2a.478.478,0,0,0,.128-.413V36.681a.357.357,0,0,0-.119-.306l-.878-1.059v-.159H5.072l2.106,4.625,1.853-4.622h2.6Z" transform="translate(548 663)" fill="#fff"/>
  </g>
</svg>
